<!-- Generated by IcoMoon.io -->
<svg version="1.1" xmlns="http://www.w3.org/2000/svg" width="512" height="512">
<title></title>
<g id="icomoon-ignore">
</g>
<path d="M112 64h-96c-8.8 0-16 7.2-16 16v352c0 8.8 7.2 16 16 16h96c8.8 0 16-7.2 16-16v-352c0-8.8-7.2-16-16-16zM96 160h-64v-32h64v32z"></path>
<path d="M272 64h-96c-8.8 0-16 7.2-16 16v352c0 8.8 7.2 16 16 16h96c8.8 0 16-7.2 16-16v-352c0-8.8-7.2-16-16-16zM256 160h-64v-32h64v32z"></path>
<path d="M382.544 88.74l-85.732 43.197c-7.858 3.959-11.048 13.629-7.089 21.488l143.989 285.774c3.959 7.859 13.629 11.049 21.488 7.089l85.732-43.196c7.858-3.96 11.048-13.63 7.089-21.487l-143.989-285.775c-3.96-7.859-13.63-11.050-21.488-7.090z"></path>
</svg>
