<!-- Generated by IcoMoon.io -->
<svg version="1.1" xmlns="http://www.w3.org/2000/svg" width="512" height="512">
<title></title>
<g id="icomoon-ignore">
</g>
<path d="M352 448h128l32-64v128h-192v-107.107c65.556-28.242 112-98.581 112-180.893 0-107.216-78.799-191.133-176-191.133-97.203 0-176 83.916-176 191.133 0 82.312 46.443 152.651 112 180.893v107.107h-192v-128l32 64h128v-16.295c-93.815-33.23-160-113.701-160-207.705 0-123.712 114.615-224 256-224s256 100.288 256 224c0 94.004-66.185 174.475-160 207.705v16.295z"></path>
</svg>
